<svg width="28" height="21" viewBox="0 0 28 21" fill="none" xmlns="http://www.w3.org/2000/svg">
<path d="M1.02098 10.9069C0.932054 10.6432 0.932054 10.3576 1.02098 10.0939C2.78578 4.78418 7.79518 0.954285 13.6991 0.954285C19.6004 0.954285 24.6073 4.78036 26.3759 10.0875C26.4649 10.3509 26.4649 10.6359 26.3759 10.9006C24.6123 16.2102 19.603 20.0401 13.6991 20.0401C7.79772 20.0401 2.7896 16.2141 1.02098 10.9069Z" stroke="#E3E3E3" stroke-width="1.90858" stroke-linecap="round" stroke-linejoin="round"/>
<path d="M17.4954 11.1334C17.4954 12.1458 17.0932 13.1167 16.3773 13.8325C15.6615 14.5484 14.6906 14.9506 13.6782 14.9506C12.6658 14.9506 11.6949 14.5484 10.979 13.8325C10.2632 13.1167 9.86102 12.1458 9.86102 11.1334C9.86102 10.121 10.2632 9.1501 10.979 8.43425C11.6949 7.71839 12.6658 7.31622 13.6782 7.31622C14.6906 7.31622 15.6615 7.71839 16.3773 8.43425C17.0932 9.1501 17.4954 10.121 17.4954 11.1334Z" stroke="#E3E3E3" stroke-width="1.90858" stroke-linecap="round" stroke-linejoin="round"/>
</svg>
